<mxfile host="65bd71144e">
    <diagram id="FQgvyPdSq9QM8dJuktgp" name="ページ1">
        <mxGraphModel dx="1065" dy="797" grid="1" gridSize="10" guides="1" tooltips="1" connect="1" arrows="1" fold="1" page="1" pageScale="1" pageWidth="827" pageHeight="1169" math="0" shadow="0">
            <root>
                <mxCell id="0"/>
                <mxCell id="1" parent="0"/>
                <mxCell id="2" value="" style="rounded=0;whiteSpace=wrap;html=1;fillColor=none;fontFamily=Noto Sans JP;fontSource=https%3A%2F%2Ffonts.googleapis.com%2Fcss%3Ffamily%3DNoto%2BSans%2BJP;strokeColor=#FFFFFF;" parent="1" vertex="1">
                    <mxGeometry x="160" y="20" width="900" height="331" as="geometry"/>
                </mxCell>
                <mxCell id="3" value="ビュー &amp;amp; ビューモデル" style="rounded=0;whiteSpace=wrap;html=1;verticalAlign=top;fillColor=#bac8d3;strokeColor=#23445d;fontColor=#000000;fontFamily=Noto Sans JP;fontSource=https%3A%2F%2Ffonts.googleapis.com%2Fcss%3Ffamily%3DNoto%2BSans%2BJP;fontSize=18;" parent="1" vertex="1">
                    <mxGeometry x="190" y="60" width="490" height="210" as="geometry"/>
                </mxCell>
                <mxCell id="4" value="モデル" style="rounded=0;whiteSpace=wrap;html=1;verticalAlign=top;fillColor=#bac8d3;strokeColor=#23445d;fontColor=#000000;fontFamily=Noto Sans JP;fontSource=https%3A%2F%2Ffonts.googleapis.com%2Fcss%3Ffamily%3DNoto%2BSans%2BJP;fontSize=18;" parent="1" vertex="1">
                    <mxGeometry x="702" y="60" width="231" height="210" as="geometry"/>
                </mxCell>
                <mxCell id="5" value="フロントエンド" style="text;html=1;strokeColor=none;fillColor=none;align=center;verticalAlign=middle;whiteSpace=wrap;rounded=0;fontFamily=Noto Sans JP;fontSource=https%3A%2F%2Ffonts.googleapis.com%2Fcss%3Ffamily%3DNoto%2BSans%2BJP;fontSize=18;fontColor=#FFFFFF;" parent="1" vertex="1">
                    <mxGeometry x="523.75" y="23" width="134.5" height="30" as="geometry"/>
                </mxCell>
                <mxCell id="6" value="Component" style="rounded=0;whiteSpace=wrap;html=1;align=left;spacingLeft=5;fillColor=#CCFFCC;fontColor=#000000;strokeColor=#66FFB3;fontFamily=Noto Sans JP;fontSource=https%3A%2F%2Ffonts.googleapis.com%2Fcss%3Ffamily%3DNoto%2BSans%2BJP;fontSize=18;verticalAlign=top;" parent="1" vertex="1">
                    <mxGeometry x="210" y="100" width="460" height="150" as="geometry"/>
                </mxCell>
                <mxCell id="10" value="画面表示・デザイン&lt;br style=&quot;font-size: 18px&quot;&gt;(データバインド、&lt;br style=&quot;font-size: 18px&quot;&gt;デザイン、&lt;br&gt;フォーマット)" style="rounded=0;whiteSpace=wrap;html=1;fontSize=18;fillColor=#f5f5f5;fontColor=#333333;strokeColor=#666666;fontFamily=Noto Sans JP;fontSource=https%3A%2F%2Ffonts.googleapis.com%2Fcss%3Ffamily%3DNoto%2BSans%2BJP;" parent="1" vertex="1">
                    <mxGeometry x="240" y="140" width="191" height="100" as="geometry"/>
                </mxCell>
                <mxCell id="11" value="画面操作・ロジック&lt;br style=&quot;font-size: 18px&quot;&gt;(イベント処理、&lt;br style=&quot;font-size: 18px&quot;&gt;入力チェック)" style="rounded=0;whiteSpace=wrap;html=1;fontSize=18;fillColor=#f5f5f5;fontColor=#333333;strokeColor=#666666;fontFamily=Noto Sans JP;fontSource=https%3A%2F%2Ffonts.googleapis.com%2Fcss%3Ffamily%3DNoto%2BSans%2BJP;verticalAlign=middle;" parent="1" vertex="1">
                    <mxGeometry x="452" y="140" width="191" height="100" as="geometry"/>
                </mxCell>
                <mxCell id="17" value="通信制御" style="rounded=0;whiteSpace=wrap;html=1;fontSize=18;dashed=1;fillColor=#dae8fc;strokeColor=#6C8EBF;fontColor=#000000;strokeWidth=2;verticalAlign=top;fontFamily=Noto Sans JP;fontSource=https%3A%2F%2Ffonts.googleapis.com%2Fcss%3Ffamily%3DNoto%2BSans%2BJP;" parent="1" vertex="1">
                    <mxGeometry x="946" y="60" width="97" height="210" as="geometry"/>
                </mxCell>
                <mxCell id="18" value="" style="shape=flexArrow;endArrow=classic;startArrow=classic;html=1;fontSize=18;fillColor=#f5f5f5;strokeColor=#666666;fontFamily=Noto Sans JP;fontSource=https%3A%2F%2Ffonts.googleapis.com%2Fcss%3Ffamily%3DNoto%2BSans%2BJP;" parent="1" edge="1">
                    <mxGeometry width="100" height="100" relative="1" as="geometry">
                        <mxPoint x="654" y="174.82999999999998" as="sourcePoint"/>
                        <mxPoint x="722.06" y="174.91" as="targetPoint"/>
                        <Array as="points"/>
                    </mxGeometry>
                </mxCell>
                <mxCell id="20" value="" style="shape=flexArrow;endArrow=classic;startArrow=classic;html=1;fontSize=18;fillColor=#f5f5f5;strokeColor=#666666;fontFamily=Noto Sans JP;fontSource=https%3A%2F%2Ffonts.googleapis.com%2Fcss%3Ffamily%3DNoto%2BSans%2BJP;" parent="1" edge="1">
                    <mxGeometry width="100" height="100" relative="1" as="geometry">
                        <mxPoint x="911" y="174.49999999999997" as="sourcePoint"/>
                        <mxPoint x="969.1199999999999" y="174.57999999999996" as="targetPoint"/>
                        <Array as="points"/>
                    </mxGeometry>
                </mxCell>
                <mxCell id="21" value="" style="shape=flexArrow;endArrow=classic;startArrow=classic;html=1;fontSize=18;fillColor=#f5f5f5;strokeColor=#666666;fontFamily=Noto Sans JP;fontSource=https%3A%2F%2Ffonts.googleapis.com%2Fcss%3Ffamily%3DNoto%2BSans%2BJP;" parent="1" edge="1">
                    <mxGeometry width="100" height="100" relative="1" as="geometry">
                        <mxPoint x="1034" y="174.5" as="sourcePoint"/>
                        <mxPoint x="1092.12" y="174.5799999999998" as="targetPoint"/>
                        <Array as="points"/>
                    </mxGeometry>
                </mxCell>
                <mxCell id="22" value="Router" style="rounded=0;whiteSpace=wrap;html=1;align=center;spacingLeft=5;fillColor=#dae8fc;strokeColor=#6c8ebf;fontColor=#000000;dashed=1;strokeWidth=2;fontFamily=Noto Sans JP;fontSource=https%3A%2F%2Ffonts.googleapis.com%2Fcss%3Ffamily%3DNoto%2BSans%2BJP;fontSize=18;" parent="1" vertex="1">
                    <mxGeometry x="180" y="290" width="374" height="40" as="geometry"/>
                </mxCell>
                <mxCell id="23" value="共通処理" style="rounded=0;whiteSpace=wrap;html=1;align=center;spacingLeft=5;fillColor=#dae8fc;strokeColor=#6c8ebf;fontColor=#000000;dashed=1;strokeWidth=2;fontFamily=Noto Sans JP;fontSource=https%3A%2F%2Ffonts.googleapis.com%2Fcss%3Ffamily%3DNoto%2BSans%2BJP;fontSize=18;" parent="1" vertex="1">
                    <mxGeometry x="643" y="290" width="374" height="40" as="geometry"/>
                </mxCell>
                <mxCell id="24" value="ブラウザ" style="rounded=0;whiteSpace=wrap;html=1;fontColor=#FFFFFF;fillColor=none;strokeColor=#FFFFFF;verticalAlign=top;fontFamily=Noto Sans JP;fontSource=https%3A%2F%2Ffonts.googleapis.com%2Fcss%3Ffamily%3DNoto%2BSans%2BJP;fontSize=18;" parent="1" vertex="1">
                    <mxGeometry x="54" y="20" width="91" height="331" as="geometry"/>
                </mxCell>
                <mxCell id="25" value="" style="shape=flexArrow;endArrow=classic;startArrow=classic;html=1;fontSize=12;fillColor=#f5f5f5;strokeColor=#666666;fontFamily=Noto Sans JP;fontSource=https%3A%2F%2Ffonts.googleapis.com%2Fcss%3Ffamily%3DNoto%2BSans%2BJP;" parent="1" edge="1">
                    <mxGeometry width="100" height="100" relative="1" as="geometry">
                        <mxPoint x="121.87999999999982" y="174.4099999999998" as="sourcePoint"/>
                        <mxPoint x="179.99999999999994" y="174.48999999999984" as="targetPoint"/>
                        <Array as="points"/>
                    </mxGeometry>
                </mxCell>
                <mxCell id="26" value="&lt;div style=&quot;text-align: left; font-size: 18px;&quot;&gt;&lt;span style=&quot;font-size: 18px;&quot;&gt;サーバー&lt;/span&gt;&lt;/div&gt;&lt;div style=&quot;text-align: left; font-size: 18px;&quot;&gt;&lt;span style=&quot;font-size: 18px;&quot;&gt;(バックエンド)へ&lt;/span&gt;&lt;/div&gt;" style="text;html=1;strokeColor=none;fillColor=none;align=center;verticalAlign=middle;whiteSpace=wrap;rounded=0;fontFamily=Noto Sans JP;fontSource=https%3A%2F%2Ffonts.googleapis.com%2Fcss%3Ffamily%3DNoto%2BSans%2BJP;fontSize=18;fontColor=#FFFFFF;" parent="1" vertex="1">
                    <mxGeometry x="1100" y="160" width="149" height="30" as="geometry"/>
                </mxCell>
                <mxCell id="31" value="Store" style="rounded=0;whiteSpace=wrap;html=1;fontSize=18;verticalAlign=top;fillColor=#fff2cc;strokeColor=#d6b656;fontFamily=Noto Sans JP;fontSource=https%3A%2F%2Ffonts.googleapis.com%2Fcss%3Ffamily%3DNoto%2BSans%2BJP;spacing=0;spacingTop=-1;fontColor=#000000;" parent="1" vertex="1">
                    <mxGeometry x="722" y="93" width="191" height="80" as="geometry"/>
                </mxCell>
                <mxCell id="32" value="状態管理" style="rounded=0;whiteSpace=wrap;html=1;fontSize=18;fillColor=#f5f5f5;strokeColor=#666666;fontColor=#333333;fontFamily=Noto Sans JP;fontSource=https%3A%2F%2Ffonts.googleapis.com%2Fcss%3Ffamily%3DNoto%2BSans%2BJP;" parent="1" vertex="1">
                    <mxGeometry x="734.5" y="133" width="166" height="32.5" as="geometry"/>
                </mxCell>
                <mxCell id="33" value="Service" style="rounded=0;whiteSpace=wrap;html=1;fontSize=18;verticalAlign=top;fillColor=#fff2cc;strokeColor=#d6b656;fontFamily=Noto Sans JP;fontSource=https%3A%2F%2Ffonts.googleapis.com%2Fcss%3Ffamily%3DNoto%2BSans%2BJP;spacing=0;spacingTop=-1;fontColor=#000000;" parent="1" vertex="1">
                    <mxGeometry x="722" y="183" width="191" height="80" as="geometry"/>
                </mxCell>
                <mxCell id="34" value="Store の操作" style="rounded=0;whiteSpace=wrap;html=1;fontSize=18;fillColor=#f5f5f5;strokeColor=#666666;fontColor=#333333;fontFamily=Noto Sans JP;fontSource=https%3A%2F%2Ffonts.googleapis.com%2Fcss%3Ffamily%3DNoto%2BSans%2BJP;" parent="1" vertex="1">
                    <mxGeometry x="734.5" y="220.5" width="166" height="32.5" as="geometry"/>
                </mxCell>
            </root>
        </mxGraphModel>
    </diagram>
</mxfile>